<!DOCTYPE svg PUBLIC "-//W3C//DTD SVG 1.1//EN" "http://www.w3.org/Graphics/SVG/1.1/DTD/svg11.dtd">
<!-- Uploaded to: SVG Repo, www.svgrepo.com, Transformed by: SVG Repo Mixer Tools -->
<svg fill="#2e61d6" height="100px" width="100px" version="1.1" id="Capa_1" xmlns="http://www.w3.org/2000/svg" xmlns:xlink="http://www.w3.org/1999/xlink" viewBox="-14.42 -14.42 76.91 76.91" xml:space="preserve" stroke="#2e61d6" stroke-width="3.36455">
<g id="SVGRepo_bgCarrier" stroke-width="0" transform="translate(0,0), scale(1)">
<rect x="-14.42" y="-14.42" width="76.91" height="76.91" rx="38.455" fill="#ffffff" strokewidth="0"/>
</g>
<g id="SVGRepo_tracerCarrier" stroke-linecap="round" stroke-linejoin="round" stroke="#CCCCCC" stroke-width="0.48064999999999997"/>
<g id="SVGRepo_iconCarrier"> <path d="M40.908,0H7.158c-0.553,0-1,0.448-1,1v46.065c0,0.401,0.239,0.763,0.608,0.92c0.369,0.157,0.797,0.078,1.085-0.2 l16.182-15.582l16.182,15.582c0.189,0.183,0.439,0.28,0.693,0.28c0.132,0,0.266-0.026,0.392-0.08c0.369-0.157,0.608-0.52,0.608-0.92 V1C41.908,0.448,41.46,0,40.908,0z M39.908,44.714L24.726,30.095c-0.193-0.187-0.443-0.28-0.693-0.28s-0.5,0.093-0.693,0.28 L8.158,44.714V2h31.75V44.714z"/> </g>
</svg>